# xmcd
#
# Track frame offsets:
#	150
#	14317
#	29307
#	47325
#	65330
#	82352
#	99192
#	112750
#	128867
#	146795
#	164077
#	180582
#
# Disc length: 2626 seconds
#
# Revision: 5
# Processed by: cddbd v1.5.2PL0 Copyright (c) Steve Scherf et al.
# Submitted via: EasyCDDAExtractor 15.3.0.1
#
DISCID=9b0a400c
DTITLE=Alejandro Fernandez - Dos Mundos - Evolucion and Tradicion - CD 1 - Evolu
DTITLE=cion
DYEAR=2009
DGENRE=Latin
TTITLE0=Me Hace Tanto Bien
TTITLE1=Cuando Digo Tu Nombre
TTITLE2=Se Me Va La Voz
TTITLE3=Cielo De Acuarela
TTITLE4=Tu Amor Perdi
TTITLE5=Dibujando Un Corazon
TTITLE6=De Nada Sirve Hablar
TTITLE7=No Lo Beses
TTITLE8=Una Lagrima En El Corazon
TTITLE9=Imagina
TTITLE10=Mañana Es Para Siempre
TTITLE11=Celebracion De Amor (Bonus Track)
EXTD=
EXTT0=
EXTT1=
EXTT2=
EXTT3=
EXTT4=
EXTT5=
EXTT6=
EXTT7=
EXTT8=
EXTT9=
EXTT10=
EXTT11=
PLAYORDER=
